<?xml version="1.0" encoding="utf-8"?>
<!-- Generator: Adobe Illustrator 19.0.0, SVG Export Plug-In . SVG Version: 6.00 Build 0)  -->
<svg version="1.1" id="Layer_1" xmlns="http://www.w3.org/2000/svg" xmlns:xlink="http://www.w3.org/1999/xlink" x="0px" y="0px"
	 viewBox="0 0 30 30" style="enable-background:new 0 0 30 30;" xml:space="preserve">
<style type="text/css">
	.st0{fill-rule:evenodd;clip-rule:evenodd;fill:#FDFDFE;}
</style>
<g>
	<g id="XMLID_36_">
		<path id="XMLID_37_" class="st0" d="M1.4,6.2h20.1c0.5,0,0.9-0.4,0.9-0.9S22,4.4,21.5,4.4H1.4C1,4.4,0.6,4.8,0.6,5.3
			S1,6.2,1.4,6.2z M28.6,14.3H1.4c-0.5,0-0.9,0.4-0.9,0.9c0,0.5,0.4,0.9,0.9,0.9h27.1c0.5,0,0.9-0.4,0.9-0.9
			C29.4,14.7,29,14.3,28.6,14.3z M21.7,24.2H1.3c-0.4,0-0.7,0.3-0.7,0.7s0.3,0.7,0.7,0.7h20.4c0.4,0,0.7-0.3,0.7-0.7
			S22.1,24.2,21.7,24.2z"/>
	</g>
</g>
</svg>
