<?xml version="1.0" encoding="utf-8"?>
<!-- Generator: Adobe Illustrator 19.0.0, SVG Export Plug-In . SVG Version: 6.00 Build 0)  -->
<svg version="1.1" id="Layer_1" xmlns="http://www.w3.org/2000/svg" xmlns:xlink="http://www.w3.org/1999/xlink" x="0px" y="0px"
	 viewBox="0 0 280 280" style="enable-background:new 0 0 280 280;" xml:space="preserve">
<style type="text/css">
	.st0{fill-rule:evenodd;clip-rule:evenodd;fill:#59489D;}
</style>
<g>
	<g id="XMLID_49_">
		<path id="XMLID_50_" class="st0" d="M140.9,246.6C83,246.6,36,199.7,36,142S83,37.4,140.9,37.4c44,0,81.6,26.9,97.2,65.2l12.5-0.4
			c-16.3-44.7-59.3-76.6-109.8-76.6C76.4,25.6,24.1,77.7,24.1,142s52.3,116.4,116.8,116.4c50.2,0,93-31.5,109.5-75.8l-12.8,0.2
			C221.6,220.3,184.4,246.6,140.9,246.6z M244.2,119.2c0,2.8,2.3,5.1,5.1,5.1c2.8,0,5.1-2.3,5.1-5.1s-2.3-5.1-5.1-5.1
			C246.4,114.2,244.2,116.4,244.2,119.2z M251.8,137.8c-2.8,0-5.1,2.3-5.1,5.1s2.3,5.1,5.1,5.1c2.8,0,5.1-2.3,5.1-5.1
			S254.6,137.8,251.8,137.8z M249.2,160.6c-2.8,0-5.1,2.3-5.1,5.1s2.3,5.1,5.1,5.1c2.8,0,5.1-2.3,5.1-5.1S252.1,160.6,249.2,160.6z"
			/>
	</g>
</g>
</svg>
