<?xml version="1.0" encoding="utf-8"?>
<!-- Generator: Adobe Illustrator 19.0.0, SVG Export Plug-In . SVG Version: 6.00 Build 0)  -->
<svg version="1.1" id="Layer_1" xmlns="http://www.w3.org/2000/svg" xmlns:xlink="http://www.w3.org/1999/xlink" x="0px" y="0px"
	 viewBox="0 0 280 280" style="enable-background:new 0 0 280 280;" xml:space="preserve">
<style type="text/css">
	.st0{fill-rule:evenodd;clip-rule:evenodd;fill:#59489D;}
</style>
<g>
	<g id="XMLID_46_">
		<path id="XMLID_47_" class="st0" d="M141.3,35.8c2.8,0,5.1-2.3,5.1-5.1c0-2.8-2.3-5.1-5.1-5.1s-5.1,2.3-5.1,5.1
			C136.3,33.5,138.5,35.8,141.3,35.8z M117.7,38.3c2.8,0,5.1-2.3,5.1-5.1c0-2.8-2.3-5.1-5.1-5.1s-5.1,2.3-5.1,5.1
			C112.7,36.1,114.9,38.3,117.7,38.3z M181.1,32.1l0.2,12.8c37.5,15.9,63.8,53.2,63.8,96.7c0,58-46.8,104.9-104.6,104.9
			s-104.6-47-104.6-104.9c0-44,26.9-81.6,65.2-97.2l-0.4-12.5C56,48.1,24.1,91.1,24.1,141.6c0,64.5,52.1,116.8,116.4,116.8
			s116.4-52.3,116.4-116.8C256.9,91.4,225.3,48.6,181.1,32.1z M164.1,38.3c2.8,0,5.1-2.3,5.1-5.1c0-2.8-2.3-5.1-5.1-5.1
			s-5.1,2.3-5.1,5.1C159.1,36.1,161.3,38.3,164.1,38.3z"/>
	</g>
</g>
</svg>
