<?xml version="1.0" encoding="utf-8"?>
<!-- Generator: Adobe Illustrator 19.0.0, SVG Export Plug-In . SVG Version: 6.00 Build 0)  -->
<svg version="1.1" id="Layer_1" xmlns="http://www.w3.org/2000/svg" xmlns:xlink="http://www.w3.org/1999/xlink" x="0px" y="0px"
	 viewBox="0 0 280 280" style="enable-background:new 0 0 280 280;" xml:space="preserve">
<style type="text/css">
	.st0{fill-rule:evenodd;clip-rule:evenodd;fill:#59489D;}
</style>
<g>
	<g id="XMLID_49_">
		<path id="XMLID_50_" class="st0" d="M139.7,248.2c-2.8,0-5.1,2.3-5.1,5.1c0,2.8,2.3,5.1,5.1,5.1s5.1-2.3,5.1-5.1
			C144.7,250.5,142.5,248.2,139.7,248.2z M163.3,245.7c-2.8,0-5.1,2.3-5.1,5.1c0,2.8,2.3,5.1,5.1,5.1s5.1-2.3,5.1-5.1
			C168.3,247.9,166.1,245.7,163.3,245.7z M140.5,25.6c-64.3,0-116.4,52.3-116.4,116.8c0,50.2,31.5,93,75.8,109.5l-0.2-12.8
			c-37.5-15.9-63.8-53.2-63.8-96.7c0-58,46.8-104.9,104.6-104.9s104.6,47,104.6,104.9c0,44-26.9,81.6-65.2,97.2l0.4,12.5
			c44.7-16.3,76.6-59.3,76.6-109.8C256.9,77.9,204.8,25.6,140.5,25.6z M116.9,245.7c-2.8,0-5.1,2.3-5.1,5.1c0,2.8,2.3,5.1,5.1,5.1
			s5.1-2.3,5.1-5.1C121.9,247.9,119.7,245.7,116.9,245.7z"/>
	</g>
</g>
</svg>
