<?xml version="1.0" encoding="utf-8"?>
<!-- Generator: Adobe Illustrator 19.0.0, SVG Export Plug-In . SVG Version: 6.00 Build 0)  -->
<svg version="1.1" id="Layer_1" xmlns="http://www.w3.org/2000/svg" xmlns:xlink="http://www.w3.org/1999/xlink" x="0px" y="0px"
	 viewBox="0 0 280 280" style="enable-background:new 0 0 280 280;" xml:space="preserve">
<style type="text/css">
	.st0{fill-rule:evenodd;clip-rule:evenodd;fill:#59489D;}
</style>
<g>
	<g id="XMLID_49_">
		<path id="XMLID_50_" class="st0" d="M36.8,164.8c0-2.8-2.3-5.1-5.1-5.1c-2.8,0-5.1,2.3-5.1,5.1s2.3,5.1,5.1,5.1
			C34.6,169.8,36.8,167.6,36.8,164.8z M34.3,141.2c0-2.8-2.3-5.1-5.1-5.1c-2.8,0-5.1,2.3-5.1,5.1s2.3,5.1,5.1,5.1
			C32,146.2,34.3,144,34.3,141.2z M140.1,25.6c-50.2,0-93,31.5-109.5,75.8l12.8-0.2c15.9-37.5,53.2-63.8,96.7-63.8
			C198,37.4,245,84.3,245,142s-47,104.6-104.9,104.6c-44,0-81.6-26.9-97.2-65.2l-12.5,0.4c16.3,44.7,59.3,76.6,109.8,76.6
			c64.5,0,116.8-52.1,116.8-116.4S204.6,25.6,140.1,25.6z M31.8,123.4c2.8,0,5.1-2.3,5.1-5.1s-2.3-5.1-5.1-5.1
			c-2.8,0-5.1,2.3-5.1,5.1S28.9,123.4,31.8,123.4z"/>
	</g>
</g>
</svg>
