<?xml version="1.0" encoding="utf-8"?>
<!-- Generator: Adobe Illustrator 19.0.0, SVG Export Plug-In . SVG Version: 6.00 Build 0)  -->
<svg version="1.1" id="Layer_1" xmlns="http://www.w3.org/2000/svg" xmlns:xlink="http://www.w3.org/1999/xlink" x="0px" y="0px"
	 viewBox="0 0 55.4 55.4" style="enable-background:new 0 0 55.4 55.4;" xml:space="preserve">
<style type="text/css">
	.st0{clip-path:url(#SVGID_2_);fill:#FEFEFE;}
</style>
<g>
	<defs>
		<rect id="SVGID_1_" y="0" width="55.4" height="55.4"/>
	</defs>
	<clipPath id="SVGID_2_">
		<use xlink:href="#SVGID_1_"  style="overflow:visible;"/>
	</clipPath>
	<path class="st0" d="M54.3,55.4c-0.3,0-0.6-0.1-0.8-0.3L41.9,43.6c-0.5-0.5-0.5-1.2,0-1.6c0.5-0.5,1.2-0.5,1.6,0l11.5,11.5
		c0.5,0.5,0.5,1.2,0,1.6C54.8,55.3,54.6,55.4,54.3,55.4"/>
	<path class="st0" d="M25.5,51C11.4,51,0,39.6,0,25.5C0,11.4,11.4,0,25.5,0S51,11.4,51,25.5C51,39.6,39.5,51,25.5,51 M25.5,2.3
		C12.7,2.3,2.3,12.7,2.3,25.5c0,12.8,10.4,23.2,23.2,23.2c12.8,0,23.2-10.4,23.2-23.2C48.7,12.7,38.3,2.3,25.5,2.3"/>
</g>
</svg>
