<?xml version="1.0" encoding="utf-8"?>
<!-- Generator: Adobe Illustrator 19.0.0, SVG Export Plug-In . SVG Version: 6.00 Build 0)  -->
<svg version="1.1" id="Layer_2" xmlns="http://www.w3.org/2000/svg" xmlns:xlink="http://www.w3.org/1999/xlink" x="0px" y="0px"
	 viewBox="13 -12.4 55.4 55.4" style="enable-background:new 13 -12.4 55.4 55.4;" xml:space="preserve">
<style type="text/css">
	.st0{fill-rule:evenodd;clip-rule:evenodd;fill:#FFFFFF;}
</style>
<path class="st0" d="M40.5,41.2c-14.4,0-26.1-11.7-26.1-26.1S26.1-11,40.5-11S66.6,0.7,66.6,15.1S54.9,41.2,40.5,41.2z M40.5-9.1
	c-13.4,0-24.2,10.8-24.2,24.2s10.8,24.2,24.2,24.2s24.2-10.8,24.2-24.2S53.9-9.1,40.5-9.1z M51.5,15.7c-0.9,0.6-13.9,10.8-15,11.4
	c-0.8,0.5-1.9,0.3-1.9-0.8c0-1.1,0-22.5,0-23.2c0-0.9,1-1.3,1.9-0.8c0.8,0.4,13.7,10.6,15,11.4C52.3,14.3,52.3,15.2,51.5,15.7z
	 M48.8,14.1c-0.9-0.5-10.5-8.3-11.1-8.6c-0.7-0.4-1.3-0.1-1.3,0.5c0,0.5,0,16.7,0,17.4c0,0.7,0.7,0.9,1.3,0.5
	c0.8-0.4,10.4-8.2,11.1-8.6C49.4,15.1,49.4,14.5,48.8,14.1z"/>
</svg>
