<?xml version="1.0" encoding="utf-8"?>
<!-- Generator: Adobe Illustrator 19.0.0, SVG Export Plug-In . SVG Version: 6.00 Build 0)  -->
<svg version="1.1" id="Layer_2" xmlns="http://www.w3.org/2000/svg" xmlns:xlink="http://www.w3.org/1999/xlink" x="0px" y="0px"
	 viewBox="8 -12.4 46.5 54.4" style="enable-background:new 8 -12.4 46.5 54.4;" xml:space="preserve">
<style type="text/css">
	.st0{fill:#04091C;}
</style>
<g>
	<path class="st0" d="M41.2,18.1c-0.4-1.7-1.4-3.1-2.7-4.3c-0.5-0.4-1-0.7-1.5-1c-0.5-0.3-1.1-0.5-1.6-0.7l0.5,2.4
		c0.1,0,0.1,0,0.2,0.1c1.5,0.8,2.7,2.3,3.1,4c0.1,0.6,0.7,0.9,1.3,0.7C41,19.3,41.3,18.7,41.2,18.1z"/>
	<path class="st0" d="M20.3,29.4c2,1.2,4.4,1.5,6.7,0.9c0.6-0.2,1.2-0.4,1.7-0.7c1.5-0.8,2.7-2.1,3.5-3.6c0.3-0.5,0.1-1.1-0.5-1.4
		c-0.5-0.3-1.1-0.1-1.4,0.5c-0.8,1.6-2.2,2.7-3.9,3.2c-1.7,0.5-3.5,0.2-5-0.7c-0.5-0.3-1.1-0.1-1.4,0.4
		C19.7,28.5,19.8,29.1,20.3,29.4z"/>
	<path class="st0" d="M31.3,4.3l2.6,1c0.1,0,0.1,0,0.2,0.1c0.5,0.1,1-0.2,1.1-0.7c0.2-0.5-0.1-1.1-0.6-1.3l-2.6-1
		c-0.5-0.2-1.1,0.1-1.3,0.6C30.5,3.5,30.8,4.1,31.3,4.3z"/>
	<path class="st0" d="M42.3,8.4l2.6,1c0.1,0,0.1,0,0.2,0.1c0.5,0.1,1-0.2,1.1-0.7c0.2-0.5-0.1-1.1-0.6-1.3l-2.6-1
		c-0.5-0.2-1.1,0.1-1.3,0.6C41.5,7.6,41.8,8.2,42.3,8.4z"/>
	<path class="st0" d="M27.7,16.6c0.1,0,0.3,0,0.4,0l2.7-0.8c0.6-0.2,0.9-0.8,0.7-1.3c-0.2-0.6-0.8-0.9-1.3-0.7l-2.7,0.8
		c-0.6,0.2-0.9,0.8-0.7,1.3C26.9,16.2,27.3,16.5,27.7,16.6z"/>
	<path class="st0" d="M19,17.2l-2.7,0.8c-0.6,0.2-0.9,0.8-0.7,1.3c0.1,0.4,0.5,0.7,0.9,0.7c0.1,0,0.3,0,0.4,0l2.7-0.8
		c0.6-0.2,0.9-0.8,0.7-1.3C20.1,17.3,19.5,17,19,17.2z"/>
	<path class="st0" d="M54,0.2c-7.4-3.9-15.2-6.9-23.3-8.9c-0.4-0.1-0.8,0.1-1,0.5c0,0.1-3.2,6.1-5,12.9C19.2,6,13.8,7.7,8.6,9.8
		c-0.4,0.2-0.6,0.5-0.5,1c0,0.1,1.8,11.9,6.6,19.7c2.6,4.3,6.5,6.3,9.2,7.3c0.9,0.3,1.9,0.5,2.9,0.5c2.6,0,5.1-1.1,6.9-3.1
		c1.6-1.8,3.6-4.9,4.2-9c3.4-1.1,6.2-3.1,8.3-5.9c5.5-7.4,8.4-18.9,8.5-19C54.6,0.8,54.4,0.4,54,0.2z M32.2,34
		c-1.4,1.6-3.4,2.5-5.5,2.5c-0.8,0-1.6-0.1-2.3-0.4c-2.5-0.8-6-2.6-8.3-6.5c-3.9-6.5-5.8-15.8-6.2-18.4c5.1-2,10.3-3.7,15.7-4.8
		l0.1,0c1.8-0.4,3.7-0.8,5.6-1.1c0.3,0,0.6-0.1,0.9-0.1c0.9,2.4,4,11.3,3.9,19C36,28.7,34,32,32.2,34z M44.6,19.2
		c-1.7,2.3-4,4-6.7,5c0-0.7,0-1.3,0-2c0,0,0,0,0,0c0-0.7-0.1-1.4-0.2-2.2c0,0,0,0,0,0c-0.4-3-1.2-6.5-1.4-7.7
		c-0.4-1.5-0.8-3.1-1.3-4.6l-0.6-1.8l-0.6-1.7c0,0,0,0,0,0c-0.1-0.3-0.3-0.5-0.4-0.6c0,0,0,0-0.1-0.1c0,0,0,0,0,0c0,0-0.1,0-0.1-0.1
		c0,0-0.1,0-0.1-0.1c0,0,0,0,0,0c0,0,0,0-0.1,0c0,0,0,0,0,0c0,0,0,0,0,0c0,0,0,0,0,0c0,0,0,0,0,0c0,0,0,0,0,0
		c-0.6,0-1.8,0.2-2.6,0.4c0,0,0,0,0,0c-1.2,0.2-2.3,0.4-3.5,0.6c1.4-5,3.5-9.4,4.3-11c7.5,1.9,14.7,4.6,21.6,8.2
		C51.9,4,49.1,13.1,44.6,19.2z"/>
</g>
</svg>
