<?xml version="1.0" encoding="utf-8"?>
<!-- Generator: Adobe Illustrator 19.0.0, SVG Export Plug-In . SVG Version: 6.00 Build 0)  -->
<svg version="1.1" id="Layer_3" xmlns="http://www.w3.org/2000/svg" xmlns:xlink="http://www.w3.org/1999/xlink" x="0px" y="0px"
	 viewBox="-104 106 30 30" style="enable-background:new -104 106 30 30;" xml:space="preserve">
<style type="text/css">
	.st0{fill:#04091C;}
</style>
<g>
	<g>
		<g>
			<path class="st0" d="M-89,122.1c-4,0-7.3-3.3-7.3-7.4s3.3-7.4,7.3-7.4s7.3,3.3,7.3,7.4S-85,122.1-89,122.1z M-89,108.7
				c-3.3,0-5.9,2.7-5.9,6c0,3.3,2.7,6,5.9,6s5.9-2.7,5.9-6C-83.1,111.4-85.7,108.7-89,108.7z"/>
		</g>
		<g>
			<path class="st0" d="M-75.7,134.7h-1.4c0-6.7-5.4-12.1-11.9-12.1s-11.9,5.4-11.9,12.1h-1.4c0-7.4,6-13.5,13.3-13.5
				S-75.7,127.3-75.7,134.7z"/>
		</g>
	</g>
</g>
</svg>
