<?xml version="1.0" encoding="utf-8"?>
<!-- Generator: Adobe Illustrator 19.0.0, SVG Export Plug-In . SVG Version: 6.00 Build 0)  -->
<svg version="1.1" id="Layer_2" xmlns="http://www.w3.org/2000/svg" xmlns:xlink="http://www.w3.org/1999/xlink" x="0px" y="0px"
	 viewBox="0 0 30 30" style="enable-background:new 0 0 30 30;" xml:space="preserve">
<style type="text/css">
	.st0{fill:#0A0A0A;}
	.st1{enable-background:new    ;}
</style>
<g>
	<path class="st0" d="M27.6,28.1h-12c-0.2,0-0.4-0.2-0.5-0.4l-0.9-3.7c-0.1-0.3,0.1-0.5,0.4-0.6c0.3-0.1,0.5,0.1,0.6,0.4l0.8,3.3
		h11.6c0.8,0,1.4-0.6,1.4-1.4V8.1c0-0.8-0.6-1.4-1.4-1.4H15.4c-0.3,0-0.5-0.2-0.5-0.5s0.2-0.5,0.5-0.5h12.2c1.3,0,2.4,1.1,2.4,2.4
		v17.7C30,27,28.9,28.1,27.6,28.1z"/>
	<path class="st0" d="M19.4,24.3h-17c-1.3,0-2.4-1.1-2.4-2.4V4.3C0,3,1.1,1.9,2.4,1.9h12c0.2,0,0.4,0.2,0.5,0.4l5.1,21.5
		c0,0.1,0,0.3-0.1,0.4C19.7,24.3,19.6,24.3,19.4,24.3z M2.4,2.9C1.6,2.9,1,3.5,1,4.3v17.7c0,0.8,0.6,1.4,1.4,1.4h16.4L14,2.9H2.4z"
		/>
	<path class="st0" d="M15.6,28.1c-0.1,0-0.2,0-0.3-0.1c-0.2-0.2-0.2-0.5,0-0.7l3.8-3.8c0.2-0.2,0.5-0.2,0.7,0c0.2,0.2,0.2,0.5,0,0.7
		L16,28C15.9,28.1,15.8,28.1,15.6,28.1z"/>
	<g>
		<path class="st0" d="M21.3,10.3l0.6,1.2c0.2,0.5,0.5,0.9,0.5,1.7v1c0,0.8-0.4,1.7-1.2,2.5c-0.6,0.6-1,0.8-1.5,0.8
			c-0.7,0-1.5-0.2-2.3-0.7l0.1-0.3c0.3,0.1,0.6,0.2,1,0.2c1.3,0,2.6-1.1,3.2-2.5c0.1-0.2,0.1-0.3,0.1-0.4c0-0.2-0.1-0.3-0.1-0.5
			c-0.2-0.4-0.3-0.7-0.5-1C20.8,11.8,20.8,11,21.3,10.3L21.3,10.3L21.3,10.3z"/>
	</g>
	<g>
		<path class="st0" d="M24.1,17.6c0.1-0.6,0.1-1.2,0.1-1.8v-0.9c0-1.3-0.1-3.1-0.2-4.6c-0.1-0.8,0.2-1.5,0.8-2.1c0,0,0,0,0,0l0.1,0
			c0.2,2,0.2,4.3,0.2,6.4c0,0.6,0,1.1-0.1,1.5c0,0.5-0.3,0.9-0.8,1.5L24.1,17.6z"/>
	</g>
	<g class="st1">
		<path class="st0" d="M10.2,12.2l-0.3-0.9h-3l-0.3,0.9c-0.1,0.4-0.3,0.6-0.3,0.7c-0.1,0.1-0.3,0.2-0.5,0.2c-0.2,0-0.3-0.1-0.5-0.2
			C5.1,12.8,5,12.7,5,12.5c0-0.1,0-0.2,0-0.3c0-0.1,0.1-0.3,0.2-0.4l1.9-4.7c0.1-0.1,0.1-0.3,0.2-0.5c0.1-0.2,0.2-0.3,0.2-0.5
			C7.6,6,7.7,5.9,7.9,5.8C8,5.7,8.2,5.7,8.4,5.7c0.2,0,0.4,0,0.5,0.1C9,5.9,9.1,6,9.2,6.1c0.1,0.1,0.2,0.3,0.2,0.4
			C9.5,6.6,9.6,6.8,9.7,7l1.9,4.7c0.1,0.4,0.2,0.6,0.2,0.8c0,0.2-0.1,0.3-0.2,0.5c-0.1,0.1-0.3,0.2-0.5,0.2c-0.1,0-0.2,0-0.3-0.1
			c-0.1,0-0.2-0.1-0.2-0.2s-0.1-0.2-0.2-0.3C10.3,12.5,10.2,12.4,10.2,12.2z M7.3,10.2h2.2l-1.1-3L7.3,10.2z"/>
	</g>
</g>
</svg>
