<?xml version="1.0" encoding="utf-8"?>
<!-- Generator: Adobe Illustrator 19.0.0, SVG Export Plug-In . SVG Version: 6.00 Build 0)  -->
<svg version="1.1" id="Layer_2" xmlns="http://www.w3.org/2000/svg" xmlns:xlink="http://www.w3.org/1999/xlink" x="0px" y="0px"
	 viewBox="-26 4 30 30" style="enable-background:new -26 4 30 30;" xml:space="preserve">
<style type="text/css">
	.st0{fill:#FFFFFF;}
	.st1{enable-background:new    ;}
</style>
<g>
	<path class="st0" d="M1.6,32.1h-12c-0.2,0-0.4-0.2-0.5-0.4l-0.9-3.7c-0.1-0.3,0.1-0.5,0.4-0.6c0.3-0.1,0.5,0.1,0.6,0.4l0.8,3.3H1.6
		c0.8,0,1.4-0.6,1.4-1.4V12.1c0-0.8-0.6-1.4-1.4-1.4h-12.2c-0.3,0-0.5-0.2-0.5-0.5c0-0.3,0.2-0.5,0.5-0.5H1.6c1.3,0,2.4,1.1,2.4,2.4
		v17.7C4,31,2.9,32.1,1.6,32.1z"/>
	<path class="st0" d="M-6.6,28.3h-17c-1.3,0-2.4-1.1-2.4-2.4V8.3c0-1.3,1.1-2.4,2.4-2.4h12c0.2,0,0.4,0.2,0.5,0.4L-6,27.8
		c0,0.1,0,0.3-0.1,0.4C-6.3,28.3-6.4,28.3-6.6,28.3z M-23.6,6.9c-0.8,0-1.4,0.6-1.4,1.4V26c0,0.8,0.6,1.4,1.4,1.4h16.4L-12,6.9
		H-23.6z"/>
	<path class="st0" d="M-10.4,32.1c-0.1,0-0.2,0-0.3-0.1c-0.2-0.2-0.2-0.5,0-0.7l3.8-3.8c0.2-0.2,0.5-0.2,0.7,0s0.2,0.5,0,0.7L-10,32
		C-10.1,32.1-10.2,32.1-10.4,32.1z"/>
	<g>
		<path class="st0" d="M-4.7,14.3l0.6,1.2c0.2,0.5,0.5,0.9,0.5,1.7v1c0,0.8-0.4,1.7-1.2,2.5c-0.6,0.6-1,0.8-1.5,0.8
			c-0.7,0-1.5-0.2-2.3-0.7l0.1-0.3c0.3,0.1,0.6,0.2,1,0.2c1.3,0,2.6-1.1,3.2-2.5c0.1-0.2,0.1-0.3,0.1-0.4c0-0.2-0.1-0.3-0.1-0.5
			c-0.2-0.4-0.3-0.7-0.5-1C-5.2,15.8-5.2,15-4.7,14.3L-4.7,14.3L-4.7,14.3z"/>
	</g>
	<g>
		<path class="st0" d="M-1.9,21.6c0.1-0.6,0.1-1.2,0.1-1.8v-0.9c0-1.3-0.1-3.1-0.2-4.6c-0.1-0.8,0.2-1.5,0.8-2.1l0,0h0.1
			c0.2,2,0.2,4.3,0.2,6.4c0,0.6,0,1.1-0.1,1.5c0,0.5-0.3,0.9-0.8,1.5H-1.9z"/>
	</g>
	<g class="st1">
		<path class="st0" d="M-15.8,16.2l-0.3-0.9h-3l-0.3,0.9c-0.1,0.4-0.3,0.6-0.3,0.7c-0.1,0.1-0.3,0.2-0.5,0.2s-0.3-0.1-0.5-0.2
			c-0.2-0.1-0.3-0.2-0.3-0.4c0-0.1,0-0.2,0-0.3c0-0.1,0.1-0.3,0.2-0.4l1.9-4.7c0.1-0.1,0.1-0.3,0.2-0.5c0.1-0.2,0.2-0.3,0.2-0.5
			c0.1-0.1,0.2-0.2,0.4-0.3c0.1-0.1,0.3-0.1,0.5-0.1s0.4,0,0.5,0.1c0.1,0.1,0.2,0.2,0.3,0.3c0.1,0.1,0.2,0.3,0.2,0.4
			c0.1,0.1,0.2,0.3,0.3,0.5l1.9,4.7c0.1,0.4,0.2,0.6,0.2,0.8s-0.1,0.3-0.2,0.5c-0.1,0.1-0.3,0.2-0.5,0.2c-0.1,0-0.2,0-0.3-0.1
			c-0.1,0-0.2-0.1-0.2-0.2s-0.1-0.2-0.2-0.3C-15.7,16.5-15.8,16.4-15.8,16.2z M-18.7,14.2h2.2l-1.1-3L-18.7,14.2z"/>
	</g>
</g>
</svg>
