<?xml version="1.0" encoding="iso-8859-1"?>
<!-- Generator: Adobe Illustrator 19.0.0, SVG Export Plug-In . SVG Version: 6.00 Build 0)  -->
<svg version="1.1" id="Layer_2" xmlns="http://www.w3.org/2000/svg" xmlns:xlink="http://www.w3.org/1999/xlink" x="0px" y="0px"
	 viewBox="0 0 30 30" style="enable-background:new 0 0 30 30;" xml:space="preserve">
<g>
	<g>
		<path style="fill:#FEFEFE;" d="M29.007,27.544H0.993c-0.407,0-0.737-0.33-0.737-0.737V18.36c0-0.407,0.33-0.737,0.737-0.737
			s0.737,0.33,0.737,0.737v7.71h26.54v-7.71c0-0.407,0.33-0.737,0.737-0.737c0.407,0,0.737,0.33,0.737,0.737v8.447
			C29.744,27.214,29.415,27.544,29.007,27.544z"/>
	</g>
	<g>
		<g>
			<path style="fill:#FEFEFE;" d="M15,20.45c-0.196,0-0.383-0.078-0.521-0.216l-3.796-3.797c-0.288-0.288-0.288-0.754,0-1.042
				c0.288-0.288,0.754-0.288,1.042,0L15,18.671l3.275-3.275c0.288-0.288,0.754-0.288,1.042,0c0.288,0.288,0.288,0.754,0,1.042
				l-3.796,3.797C15.383,20.373,15.196,20.45,15,20.45z"/>
		</g>
		<g>
			<path style="fill:#FEFEFE;" d="M15,19.765c-0.407,0-0.737-0.33-0.737-0.737V3.193c0-0.407,0.33-0.737,0.737-0.737
				s0.737,0.33,0.737,0.737v15.835C15.737,19.436,15.407,19.765,15,19.765z"/>
		</g>
	</g>
</g>
</svg>
