<?xml version="1.0" encoding="iso-8859-1"?>
<!-- Generator: Adobe Illustrator 19.0.0, SVG Export Plug-In . SVG Version: 6.00 Build 0)  -->
<svg version="1.1" id="Layer_2" xmlns="http://www.w3.org/2000/svg" xmlns:xlink="http://www.w3.org/1999/xlink" x="0px" y="0px"
	 viewBox="0 0 30 30" style="enable-background:new 0 0 30 30;" xml:space="preserve">
<g>
	<path style="fill:#FEFEFE;" d="M15.542,9.009c0.492-0.254,0.832-0.762,0.832-1.354c0-0.845-0.684-1.529-1.529-1.529
		c-0.845,0-1.529,0.684-1.529,1.529c0,0.594,0.342,1.103,0.836,1.356c-1.664,13.806-6.565,18.9-6.615,18.952
		c-0.21,0.211-0.21,0.552,0.001,0.762c0.211,0.211,0.552,0.211,0.763,0c0.088-0.088,0.952-0.978,2.063-2.935
		c0.058,0.022,0.119,0.035,0.185,0.035h8.681c0.639,1.106,1.356,2.096,2.16,2.901c0.105,0.105,0.244,0.158,0.382,0.158
		c0.138,0,0.276-0.052,0.382-0.158c0.211-0.211,0.211-0.552,0-0.763C17.758,23.568,16.032,12.852,15.542,9.009z M14.85,11.806
		c0.337,2.053,0.856,4.651,1.623,7.264h-3.291C13.812,17.03,14.396,14.626,14.85,11.806z M10.925,24.745
		c0.618-1.212,1.279-2.733,1.909-4.596h3.899c0.023,0,0.046-0.004,0.068-0.007c0.513,1.597,1.122,3.171,1.844,4.603L10.925,24.745
		L10.925,24.745z M17.66,9.727v-0.36c1.132,0,2.054-0.922,2.054-2.054c0-1.132-0.922-2.054-2.054-2.054v-0.36
		c1.331,0,2.414,1.083,2.414,2.414C20.074,8.644,18.99,9.727,17.66,9.727z M18.758,3.368v-0.36c2.415,0,4.38,1.965,4.38,4.38
		c0,2.415-1.965,4.38-4.38,4.38v-0.36c2.217,0,4.02-1.803,4.02-4.02C22.778,5.172,20.975,3.368,18.758,3.368z M25.95,7.433
		c0,3.483-2.833,6.316-6.316,6.316v-0.36c3.285,0,5.957-2.672,5.957-5.956c0-3.284-2.672-5.956-5.957-5.956v-0.36
		C23.117,1.117,25.95,3.95,25.95,7.433z M10.286,7.358c0,1.133,0.921,2.054,2.054,2.054v0.36c-1.331,0-2.414-1.083-2.414-2.414
		c0-1.331,1.083-2.414,2.414-2.414v0.36C11.207,5.304,10.286,6.225,10.286,7.358z M11.242,3.053v0.36c-2.217,0-4.02,1.804-4.02,4.02
		c0,2.217,1.803,4.02,4.02,4.02v0.36c-2.415,0-4.38-1.965-4.38-4.38C6.862,5.018,8.827,3.053,11.242,3.053z M10.366,13.794
		c-3.483,0-6.316-2.833-6.316-6.316c0-3.483,2.833-6.316,6.316-6.316v0.36c-3.284,0-5.956,2.672-5.956,5.956
		s2.672,5.956,5.956,5.956V13.794z"/>
</g>
</svg>
