<?xml version="1.0" encoding="utf-8"?>
<!-- Generator: Adobe Illustrator 19.0.0, SVG Export Plug-In . SVG Version: 6.00 Build 0)  -->
<svg version="1.1" id="Layer_1" xmlns="http://www.w3.org/2000/svg" xmlns:xlink="http://www.w3.org/1999/xlink" x="0px" y="0px"
	 viewBox="8 -12.4 46.5 54.4" style="enable-background:new 8 -12.4 46.5 54.4;" xml:space="preserve">
<style type="text/css">
	.st0{fill:#04091C;}
</style>
<path class="st0" d="M49.4,8.2L49.4,8.2C49.4,8.2,49.4,8.2,49.4,8.2c0-0.1,0-0.1,0-0.2c-0.1-0.2-0.2-0.5-0.4-0.6L31.9-6.2
	c-0.4-0.3-0.9-0.3-1.2,0L13.5,7.5c-0.2,0.2-0.4,0.5-0.4,0.8V35c0,0.5,0.5,1,1,1h34.2c0.5,0,1-0.5,1-1V16.9L49.4,8.2L49.4,8.2z
	 M34.3,34h-6v-2.4V30v-6.5h6C34.3,23.5,34.3,34,34.3,34z M47.3,34h-11V22.5c0-0.5-0.5-1-1-1h-8c-0.5,0-1,0.5-1,1V30v1.6V34H15.1V8.8
	L31.2-4.1L47.3,8.8v6.9v0.9C47.3,16.6,47.3,34,47.3,34z"/>
</svg>
