<?xml version="1.0" encoding="utf-8"?>
<!-- Generator: Adobe Illustrator 19.0.0, SVG Export Plug-In . SVG Version: 6.00 Build 0)  -->
<svg version="1.1" id="Layer_3" xmlns="http://www.w3.org/2000/svg" xmlns:xlink="http://www.w3.org/1999/xlink" x="0px" y="0px"
	 viewBox="8 -12.4 46.5 54.4" style="enable-background:new 8 -12.4 46.5 54.4;" xml:space="preserve">
<style type="text/css">
	.st0{fill:#04091C;}
</style>
<g>
	<g>
		<path class="st0" d="M27.8-1.6c-3.4,0-6.2,2.8-6.2,6.3c0,3.4,2.8,6.2,6.3,6.2c3.4,0,6.2-2.8,6.2-6.3C34,1.2,31.2-1.6,27.8-1.6z
			 M27.8,9.7c-2.8,0-5-2.3-5-5s2.3-5,5-5c2.8,0,5,2.3,5,5S30.6,9.7,27.8,9.7z"/>
		<path class="st0" d="M27.8,11c-3.5,0-6.3-2.8-6.3-6.3c0-1.7,0.6-3.3,1.8-4.5c1.2-1.2,2.8-1.9,4.5-1.9l0,0.1l0-0.1c0,0,0,0,0,0
			c3.5,0,6.3,2.8,6.4,6.3c0,1.7-0.6,3.3-1.8,4.5C31.1,10.3,29.5,11,27.8,11C27.8,11,27.8,11,27.8,11z M27.8-1.5
			C27.8-1.5,27.8-1.5,27.8-1.5c-1.7,0-3.2,0.6-4.3,1.8c-1.2,1.2-1.8,2.7-1.8,4.4c0,3.4,2.8,6.1,6.1,6.1c0,0,0,0,0,0
			c1.6,0,3.2-0.6,4.3-1.8c1.2-1.2,1.8-2.7,1.8-4.4C33.9,1.3,31.2-1.5,27.8-1.5z M27.8,9.8c-2.8,0-5.2-2.3-5.2-5.2s2.3-5.2,5.2-5.2
			S33,1.8,33,4.7S30.7,9.8,27.8,9.8z M27.8-0.3c-2.7,0-4.9,2.2-4.9,4.9s2.2,4.9,4.9,4.9s4.9-2.2,4.9-4.9S30.5-0.3,27.8-0.3z"/>
	</g>
	<g>
		<path class="st0" d="M17.7,8.6c-3.4,0-6.2,2.8-6.3,6.2c0,3.4,2.8,6.3,6.2,6.3c3.4,0,6.2-2.8,6.3-6.2C23.9,11.4,21.2,8.6,17.7,8.6z
			 M17.7,19.8c-2.8,0-5-2.3-5-5c0-2.8,2.3-5,5-5s5,2.3,5,5C22.7,17.6,20.5,19.8,17.7,19.8z"/>
		<path class="st0" d="M17.7,21.1C17.7,21.1,17.7,21.1,17.7,21.1c-1.7,0-3.3-0.7-4.5-1.9c-1.2-1.2-1.8-2.8-1.8-4.5
			c0-3.5,2.9-6.3,6.3-6.3c0,0,0,0,0,0c3.5,0,6.3,2.9,6.3,6.4c0,1.7-0.7,3.3-1.9,4.5C20.9,20.5,19.4,21.1,17.7,21.1z M17.7,8.7
			c-3.3,0-6.1,2.7-6.1,6.1c0,1.6,0.6,3.2,1.8,4.3c1.2,1.2,2.7,1.8,4.3,1.8c0,0,0,0,0,0c1.6,0,3.1-0.6,4.3-1.8
			c1.2-1.2,1.8-2.7,1.8-4.3C23.8,11.4,21.1,8.7,17.7,8.7L17.7,8.7C17.7,8.7,17.7,8.7,17.7,8.7z M17.7,19.9c-2.8,0-5.2-2.3-5.2-5.2
			s2.3-5.2,5.2-5.2s5.2,2.3,5.2,5.2S20.5,19.9,17.7,19.9z M17.7,9.8c-2.7,0-4.9,2.2-4.9,4.9c0,2.7,2.2,4.9,4.9,4.9s4.9-2.2,4.9-4.9
			C22.6,12.1,20.4,9.8,17.7,9.8z"/>
	</g>
	<g>
		<path class="st0" d="M27.8,18.7c-3.5,0-6.3,2.8-6.3,6.2c0,3.4,2.8,6.2,6.2,6.2c3.4,0,6.3-2.8,6.3-6.2C34,21.5,31.3,18.7,27.8,18.7
			z M27.8,30c-2.8,0-5-2.3-5-5c0-2.8,2.3-5,5-5c2.8,0,5,2.3,5,5C32.9,27.7,30.6,30,27.8,30z"/>
		<path class="st0" d="M27.8,31.3C27.8,31.3,27.8,31.3,27.8,31.3c-3.5,0-6.3-2.9-6.3-6.3c0-1.7,0.7-3.3,1.9-4.5
			c1.2-1.2,2.8-1.9,4.5-1.9c0,0,0,0,0,0c3.5,0,6.3,2.9,6.3,6.3c0,1.7-0.7,3.3-1.9,4.5C31.1,30.6,29.5,31.3,27.8,31.3z M27.8,18.8
			c-1.6,0-3.2,0.6-4.3,1.8c-1.2,1.2-1.8,2.7-1.8,4.3c0,3.4,2.7,6.1,6.1,6.1c0,0,0,0,0,0c1.6,0,3.2-0.6,4.3-1.8
			c1.2-1.2,1.8-2.7,1.8-4.3C33.9,21.5,31.2,18.8,27.8,18.8C27.8,18.8,27.8,18.8,27.8,18.8z M27.8,30.1c-2.8,0-5.2-2.3-5.2-5.2
			s2.3-5.2,5.2-5.2c2.8,0,5.2,2.3,5.2,5.2S30.7,30.1,27.8,30.1z M27.8,20c-2.7,0-4.9,2.2-4.9,4.9s2.2,4.9,4.9,4.9
			c2.7,0,4.9-2.2,4.9-4.9S30.5,20,27.8,20z"/>
	</g>
	<g>
		<path class="st0" d="M37.9,8.6c-3.5,0-6.2,2.8-6.2,6.2c0,3.4,2.8,6.2,6.2,6.2c3.4,0,6.2-2.8,6.2-6.3C44.2,11.3,41.4,8.6,37.9,8.6z
			 M37.9,19.8c-2.8,0-5-2.3-5-5c0-2.8,2.3-5,5-5c2.8,0,5,2.3,5,5C43,17.6,40.7,19.8,37.9,19.8z"/>
		<path class="st0" d="M37.9,21.1C37.9,21.1,37.9,21.1,37.9,21.1c-3.5,0-6.3-2.8-6.3-6.3c0-1.7,0.7-3.3,1.9-4.5
			c1.2-1.2,2.8-1.9,4.5-1.9c0,0,0,0,0,0c3.5,0,6.3,2.8,6.3,6.3c0,1.7-0.7,3.3-1.9,4.5C41.2,20.5,39.6,21.1,37.9,21.1z M37.9,8.7
			c-1.6,0-3.2,0.6-4.3,1.8c-1.2,1.2-1.8,2.7-1.8,4.3c0,3.4,2.7,6.1,6.1,6.1c0,0,0,0,0,0c1.6,0,3.2-0.6,4.3-1.8
			c1.2-1.2,1.8-2.7,1.8-4.3C44,11.4,41.3,8.7,37.9,8.7L37.9,8.7C37.9,8.7,37.9,8.7,37.9,8.7z M37.9,19.9c-2.8,0-5.2-2.3-5.2-5.2
			c0-2.8,2.3-5.2,5.2-5.2s5.2,2.3,5.2,5.2C43.1,17.6,40.8,19.9,37.9,19.9z M37.9,9.8c-2.7,0-4.9,2.2-4.9,4.9s2.2,4.9,4.9,4.9
			s4.9-2.2,4.9-4.9S40.7,9.8,37.9,9.8z"/>
	</g>
	<g>
		<path class="st0" d="M54,28.4c-0.4-0.2-0.8-0.5-1.2-0.6c-3.5-1.5-6.9-1.2-10.1,0.7c-0.5,0.3-1,0.6-1.5,0.9c0-0.1-0.1-0.1-0.1-0.2
			c0.1-0.1,0.3-0.2,0.4-0.3c4.5-4.4,6.5-9.8,5.9-16.1C46.2,1,34.7-7.1,23.2-4.3C13.2-1.9,6.8,7.9,8.4,18c1.4,8.2,8,14.8,16.1,16.1
			c2.7,0.4,5.5,0.4,8.3,0.1c4-0.4,7.8-1.4,11.2-3.6c1.7-1.1,3.6-1.5,5.6-1.2c1.1,0.2,2.2,0.6,3.1,1.2c0.5-0.7,1-1.4,1.5-2
			C54.2,28.6,54.1,28.5,54,28.4z M27.8,32.6c-9.8,0-17.8-8-17.8-17.8c0-9.8,8-17.8,17.8-17.8s17.8,8,17.8,17.8
			C45.6,24.6,37.6,32.6,27.8,32.6z"/>
		<path class="st0" d="M28.7,34.6c-1.5,0-2.9-0.1-4.2-0.3c-8.2-1.3-14.9-8-16.2-16.2c-0.8-5,0.2-10,3-14.2c2.7-4.2,6.9-7.1,11.8-8.3
			c5.6-1.4,11.4-0.2,16.1,3.1c4.7,3.3,7.6,8.5,8.2,14.1C48,19,46,24.5,41.5,29c-0.1,0.1-0.2,0.1-0.2,0.2l0.3-0.2
			c0.3-0.2,0.7-0.4,1-0.6c3.4-1.9,6.8-2.2,10.2-0.7c0.3,0.1,0.6,0.3,0.9,0.5c0.1,0.1,0.2,0.1,0.3,0.2l0,0c0.1,0,0.1,0.1,0.2,0.1
			c0,0,0.1,0.1,0.1,0.1l0.1,0.1l-1.6,2.2l-0.1-0.1c-1-0.6-2-1-3.1-1.2c-2-0.3-3.8,0.1-5.6,1.1c-3.1,1.9-6.8,3.1-11.3,3.6
			C31.4,34.5,30,34.6,28.7,34.6z M27.8-4.8c-1.5,0-3.1,0.2-4.6,0.6C13.2-1.7,6.9,7.8,8.5,18c1.3,8.1,7.9,14.7,16.1,16
			c2.4,0.4,5.1,0.4,8.2,0.1c4.4-0.5,8.1-1.6,11.2-3.5c1.8-1.1,3.7-1.5,5.7-1.2c1.1,0.2,2.1,0.5,3.1,1.2l1.4-1.9c0,0,0,0,0,0
			c-0.1-0.1-0.1-0.1-0.2-0.1l0,0c-0.1-0.1-0.2-0.1-0.3-0.2c-0.3-0.2-0.6-0.3-0.9-0.5c-3.4-1.4-6.7-1.2-10,0.7
			c-0.3,0.2-0.7,0.4-1,0.6l-0.6,0.3l-0.3-0.3l0.1-0.1c0,0,0.1-0.1,0.1-0.1c0.1-0.1,0.2-0.1,0.3-0.2c4.5-4.5,6.5-9.9,5.9-16
			c-0.5-5.6-3.5-10.7-8.1-14C35.8-3.5,31.8-4.8,27.8-4.8z M27.8,32.7c-9.9,0-17.9-8-17.9-17.9c0-9.9,8-17.9,17.9-17.9
			s17.9,8,17.9,17.9C45.7,24.6,37.7,32.7,27.8,32.7z M27.8-3C18-3,10.1,5,10.1,14.7c0,9.8,7.9,17.7,17.7,17.7
			c9.8,0,17.7-7.9,17.7-17.7C45.5,5,37.6-3,27.8-3z"/>
	</g>
	<path class="st0" d="M27.8,12.8c-1.1,0-2,0.9-2,2.1c0,1.1,0.9,2,2,2c1.1,0,2-0.9,2-2C29.8,13.6,28.9,12.8,27.8,12.8z M27.8,16.2
		c-0.8,0-1.5-0.7-1.5-1.5c0-0.8,0.7-1.5,1.5-1.5c0.8,0,1.5,0.7,1.5,1.5C29.3,15.6,28.6,16.2,27.8,16.2z"/>
</g>
</svg>
