<?xml version="1.0" encoding="utf-8"?>
<!-- Generator: Adobe Illustrator 19.0.0, SVG Export Plug-In . SVG Version: 6.00 Build 0)  -->
<svg version="1.1" id="Layer_1" xmlns="http://www.w3.org/2000/svg" xmlns:xlink="http://www.w3.org/1999/xlink" x="0px" y="0px"
	 viewBox="-13 -79 56 194" style="enable-background:new -13 -79 56 194;" xml:space="preserve">
<style type="text/css">
	.st0{fill:#05F2DB;}
	.st1{fill:#27465F;}
</style>
<path class="st0" d="M42.9,19.1C42.9,19.2,42.9,19.2,42.9,19.1C42.9,19.2,42.9,19.2,42.9,19.1c-0.1,43.2-55.7,44.5-55.7,96.3
	c0-15.1,0-55.7,0-96.2v-0.1c0-40.7,0-81.4,0-96.5C-12.9-25.5,42.8-24.2,42.9,19.1L42.9,19.1L42.9,19.1z"/>
<g>
	<g>
		<g id="XMLID_29_">
			<path id="XMLID_30_" class="st1" d="M16-1C5-1-4,8-4,19s9,20,20,20s20-9,20-20S27-1,16-1z M16,35C7.2,35,0,27.8,0,19S7.2,3,16,3
				s16,7.2,16,16S24.8,35,16,35z"/>
		</g>
	</g>
	<path id="XMLID_2_" class="st1" d="M24.1,19.9L12,27c-0.2,0.1-0.5,0.2-0.7,0.2s-0.5-0.1-0.7-0.2c-0.4-0.3-0.7-0.7-0.7-1.3V11.5
		c0-0.5,0.3-1,0.7-1.3c0.4-0.2,1-0.2,1.4,0l12.1,7.3c0.4,0.2,0.7,0.7,0.7,1.2S24.6,19.7,24.1,19.9z"/>
</g>
</svg>
