<?xml version="1.0" encoding="utf-8"?>
<!-- Generator: Adobe Illustrator 19.0.0, SVG Export Plug-In . SVG Version: 6.00 Build 0)  -->
<svg version="1.1" id="Layer_2" xmlns="http://www.w3.org/2000/svg" xmlns:xlink="http://www.w3.org/1999/xlink" x="0px" y="0px"
	 viewBox="8 -12.4 46.5 54.4" style="enable-background:new 8 -12.4 46.5 54.4;" xml:space="preserve">
<style type="text/css">
	.st0{fill:#04091C;}
</style>
<g id="Design_Convert_1_">
	<g>
		<path class="st0" d="M23.7,33c-0.6,0-1.1-0.4-1.1-1.1V5.1c0-0.4,0.3-0.8,0.6-1L49-8.7c0.5-0.3,1.1-0.1,1.4,0.4
			c0.1,0.2,0.1,0.4,0.1,0.4v31.1c0,0.6-0.4,1.1-1.1,1.1c-0.6,0-1.1-0.4-1.1-1.1V-6L24.8,5.8v26.1C24.8,32.5,24.4,33,23.7,33z"/>
		<path class="st0" d="M23.7,33.1c-0.7,0-1.2-0.5-1.2-1.2V5.1c0-0.4,0.3-0.9,0.7-1.1L49-8.8c0.6-0.3,1.3-0.1,1.6,0.5
			c0.1,0.2,0.1,0.4,0.1,0.5v31.1c0,0.7-0.5,1.2-1.2,1.2s-1.2-0.5-1.2-1.2V-5.8L25,5.9v26C25,32.6,24.4,33.1,23.7,33.1z M49.5-8.7
			c-0.2,0-0.3,0-0.4,0.1L23.3,4.3c-0.4,0.2-0.5,0.4-0.5,0.9V32c0,0.5,0.4,1,1,1s1-0.4,1-1V5.7l23.8-12v29.5c0,0.5,0.4,1,1,1
			c0.5,0,1-0.4,1-1V-7.8c0-0.2,0-0.3-0.1-0.4C50.2-8.5,49.8-8.7,49.5-8.7z"/>
	</g>
	<g>
		<path class="st0" d="M44.1,29.8c-3.5,0-6.4-2.9-6.4-6.4s2.9-6.4,6.4-6.4s6.4,2.9,6.4,6.4S47.6,29.8,44.1,29.8z M44.1,19.1
			c-2.4,0-4.3,1.9-4.3,4.3s1.9,4.3,4.3,4.3s4.3-1.9,4.3-4.3S46.5,19.1,44.1,19.1z"/>
		<path class="st0" d="M44.1,29.9c-3.6,0-6.6-2.9-6.6-6.6s2.9-6.6,6.6-6.6c3.6,0,6.6,2.9,6.6,6.6S47.7,29.9,44.1,29.9z M44.1,17.1
			c-3.5,0-6.3,2.8-6.3,6.3s2.8,6.3,6.3,6.3s6.3-2.8,6.3-6.3S47.6,17.1,44.1,17.1z M44.1,27.8c-2.5,0-4.4-2-4.4-4.4
			c0-2.5,2-4.4,4.4-4.4c2.5,0,4.4,2,4.4,4.4C48.5,25.8,46.6,27.8,44.1,27.8z M44.1,19.2c-2.3,0-4.1,1.8-4.1,4.1s1.8,4.1,4.1,4.1
			c2.3,0,4.1-1.8,4.1-4.1S46.4,19.2,44.1,19.2z"/>
	</g>
	<g>
		<path class="st0" d="M18.4,38.3c-3.5,0-6.4-2.9-6.4-6.4s2.9-6.4,6.4-6.4s6.4,2.9,6.4,6.4S22,38.3,18.4,38.3z M18.4,27.6
			c-2.4,0-4.3,1.9-4.3,4.3s1.9,4.3,4.3,4.3s4.3-1.9,4.3-4.3S20.7,27.6,18.4,27.6z"/>
		<path class="st0" d="M18.4,38.5c-3.6,0-6.6-2.9-6.6-6.6s2.9-6.6,6.6-6.6s6.6,2.9,6.6,6.6S22,38.5,18.4,38.5z M18.4,25.6
			c-3.5,0-6.3,2.8-6.3,6.3c0,3.5,2.8,6.3,6.3,6.3s6.3-2.8,6.3-6.3S21.9,25.6,18.4,25.6z M18.4,36.3c-2.5,0-4.4-2-4.4-4.4
			c0-2.5,2-4.4,4.4-4.4s4.4,2,4.4,4.4C22.8,34.4,20.8,36.3,18.4,36.3z M18.4,27.8c-2.3,0-4.1,1.8-4.1,4.1s1.8,4.1,4.1,4.1
			s4.1-1.8,4.1-4.1C22.5,29.6,20.7,27.8,18.4,27.8z"/>
	</g>
</g>
</svg>
