<?xml version="1.0" encoding="utf-8"?>
<!-- Generator: Adobe Illustrator 19.0.0, SVG Export Plug-In . SVG Version: 6.00 Build 0)  -->
<svg version="1.1" id="Layer_1" xmlns="http://www.w3.org/2000/svg" xmlns:xlink="http://www.w3.org/1999/xlink" x="0px" y="0px"
	 viewBox="0 0 30 30" style="enable-background:new 0 0 30 30;" xml:space="preserve">
<style type="text/css">
	.st0{fill:#FFFFFF;}
</style>
<g id="share_x5F_1_1_">
	<path id="XMLID_5_" class="st0" d="M22.2,28.6c-2.7,0-4.8-2.2-4.8-4.8s2.2-4.8,4.8-4.8s4.8,2.2,4.8,4.8S24.9,28.6,22.2,28.6z
		 M22.2,20.6c-1.7,0-3.1,1.4-3.1,3.1s1.4,3.1,3.1,3.1s3.1-1.4,3.1-3.1S23.9,20.6,22.2,20.6z"/>
	<path id="XMLID_4_" class="st0" d="M22.2,11.1c-2.7,0-4.8-2.2-4.8-4.8c0-2.7,2.2-4.8,4.8-4.8S27,3.5,27,6.2
		C27,8.9,24.9,11.1,22.2,11.1z M22.2,3.1c-1.7,0-3.1,1.4-3.1,3.1c0,1.7,1.4,3.1,3.1,3.1s3.1-1.4,3.1-3.1C25.3,4.5,23.9,3.1,22.2,3.1
		z"/>
	<path id="XMLID_3_" class="st0" d="M7.8,19C5.1,19,3,16.9,3,14.2s2.2-4.8,4.8-4.8c2.7,0,4.8,2.2,4.8,4.8S10.5,19,7.8,19z M7.8,11.1
		c-1.7,0-3.1,1.4-3.1,3.1c0,1.7,1.4,3.1,3.1,3.1c1.7,0,3.1-1.4,3.1-3.1C11,12.5,9.5,11.1,7.8,11.1z"/>
	<path id="XMLID_2_" class="st0" d="M11.3,13.1c-0.3,0-0.6-0.2-0.7-0.4c-0.2-0.4-0.1-0.9,0.3-1.2l7.4-4.1c0.4-0.2,0.9-0.1,1.2,0.3
		c0.2,0.4,0.1,0.9-0.3,1.2L11.7,13C11.6,13.1,11.4,13.1,11.3,13.1z"/>
	<path id="XMLID_7_" class="st0" d="M18.9,22.4c-0.2,0-0.3,0-0.5-0.1l-7.9-4.9c-0.4-0.2-0.5-0.8-0.3-1.2c0.2-0.4,0.8-0.5,1.2-0.3
		l7.9,4.9c0.4,0.2,0.5,0.8,0.3,1.2C19.4,22.3,19.1,22.4,18.9,22.4z"/>
</g>
</svg>
