<?xml version="1.0" encoding="utf-8"?>
<!-- Generator: Adobe Illustrator 19.0.0, SVG Export Plug-In . SVG Version: 6.00 Build 0)  -->
<svg version="1.1" id="Layer_2" xmlns="http://www.w3.org/2000/svg" xmlns:xlink="http://www.w3.org/1999/xlink" x="0px" y="0px"
	 viewBox="0 0 39 36" style="enable-background:new 0 0 39 36;" xml:space="preserve">
<style type="text/css">
	.st0{fill:#33F3E0;}
	.st1{fill:#FEFEFE;}
	.st2{fill:#04F2D9;}
</style>
<g>
	<path class="st0" d="M12.1,5.1C12.1,5.1,12.1,5.1,12.1,5.1c0,0-0.5,0.3-1.1,0.9C7.2,8.4,3.5,7.2,3.5,7.2s0,0,0,0c0,0,0,0,0,0
		c0.1-0.2,4.4-6.3,7.3-7C13.6-0.6,16.2,1.4,12.1,5.1z"/>
	<path class="st1" d="M33.4,20.4L33.4,20.4L33.4,20.4L33.4,20.4L33.4,20.4c0.1-0.1,0.1-0.1,0.1-0.1l0.2-0.6
		c-0.2-1.1-0.8-1.9-1.3-2.3c-0.1,0-0.2-0.1-0.3-0.1c-0.1,0-0.2-0.1-0.3-0.1c0,0,0,0,0,0c0,0,0,0-0.1,0c-0.2-0.1-0.3-0.1-0.5-0.2
		c0,0,0,0,0,0c0,0-0.1,0-0.1-0.1c-0.2-0.1-0.3-0.2-0.5-0.3c0,0,0,0,0,0c-1.1-0.8-1.7-2-1.7-2v0c-0.6-0.9-1.4-2-2.5-3.4
		c-3.1-4.2-6.5-2.9-9.4,0.6c-2.9,3.5-4.5,3.8-4.5,3.8c-2.6,0.5-3.6-0.9-4.1-2.2c-0.3-0.9-0.4-1.9-0.1-2.9c0.5-2.1,1.7-3.5,2.7-4.4
		c0.6-0.6,1.1-0.9,1.1-0.9c0,0,0,0,0,0C6.2,4.1,4.5,6,4.4,6.1c0,0,0,0,0,0c-0.3,0.3-0.6,0.7-0.9,1c0,0,0,0,0,0c0,0,0,0,0,0
		c-4,5.1-5,13.3,1.7,17c7.2,3.9,11.2-3.4,13.6-7.9c2.4-4.4,4.3-2.8,6.6,0.7c1.5,2.3,3.5,3.9,5.1,4.3c0,0,0,0,0,0c0,0,0,0,0.1,0
		c0,0,0,0,0,0C32.5,21.7,33.2,20.7,33.4,20.4L33.4,20.4z"/>
	<path class="st0" d="M30.6,9.7c0.6,0,3.9,0.1,5,0.1c0.3,0,0.6,0.1,0.8,0.2c1.5,0.6,1.5,2,1,2.8l-3.1,5.8l0,0l-0.9,1.8
		c0,0,0,0,0-0.1c0.2-0.5,0.2-0.7,0-1.3c-0.1-0.3-0.3-0.7-0.6-1l-3.8-4.9c-0.5-0.6-0.6-1.4-0.3-2.1c0.3-0.7,0.9-1.3,1.7-1.3
		C30.5,9.7,30.6,9.7,30.6,9.7z"/>
	<path class="st1" d="M2.6,33.8L2.6,33.8l1.1-3.3C3.8,30.2,4.1,30,4.4,30h0.1c0.3,0,0.6,0.2,0.7,0.5l1,3.3h0l0.9-3.2
		C7.3,30.2,7.6,30,7.9,30h0c0.5,0,0.9,0.5,0.7,1l-1.3,4.1c-0.1,0.4-0.5,0.7-1,0.7h0c-0.5,0-0.9-0.3-1-0.7l-0.8-2.6h0l-0.9,2.7
		c-0.1,0.4-0.5,0.7-1,0.7h0c-0.5,0-0.9-0.3-1-0.8L0.3,31c-0.1-0.5,0.2-1,0.7-1h0c0.3,0,0.6,0.2,0.7,0.6L2.6,33.8z"/>
	<path class="st1" d="M10.2,34.8L10,35.4c-0.1,0.3-0.4,0.5-0.7,0.5h0c-0.5,0-0.9-0.5-0.7-1l1.6-4.1c0.2-0.5,0.6-0.8,1.1-0.8h0
		c0.5,0,1,0.3,1.1,0.8l1.5,4c0.2,0.5-0.2,1-0.7,1h0c-0.3,0-0.6-0.2-0.7-0.5l-0.2-0.5H10.2z M11.3,31.8L11.3,31.8l-0.6,1.9h1.3
		L11.3,31.8z"/>
	<path class="st1" d="M15.9,35.8L15.9,35.8c-0.4,0-0.8-0.3-0.8-0.8v-3.8h-0.6c-0.4,0-0.6-0.3-0.6-0.6v0c0-0.4,0.3-0.6,0.6-0.6h2.7
		c0.4,0,0.6,0.3,0.6,0.6v0c0,0.4-0.3,0.6-0.6,0.6h-0.6v3.8C16.6,35.5,16.3,35.8,15.9,35.8z"/>
	<path class="st1" d="M20.2,31.8c0.3-0.3,0.7-0.4,1.1-0.4c0.2,0,0.5,0.1,0.7,0.2c0.3,0.1,0.6-0.1,0.6-0.4v-0.7
		c0-0.2-0.1-0.3-0.2-0.4c-0.1,0-0.1,0-0.2-0.1c-0.1,0-0.2,0-0.2-0.1c0,0,0,0-0.1,0c0,0,0,0,0,0c0,0-0.1,0-0.1,0c0,0,0,0,0,0
		c-0.1,0-0.3,0-0.4,0c0,0,0,0,0,0h-0.1c-0.3,0-0.5,0-0.8,0.1c0,0-0.1,0-0.1,0c0,0,0,0-0.1,0c0,0-0.1,0-0.1,0c0,0-0.1,0-0.1,0
		c-0.4,0.2-0.7,0.4-1,0.7c-0.3,0.3-0.5,0.6-0.6,1c-0.1,0.4-0.2,0.7-0.2,1.1v0c0,0.4,0.1,0.8,0.2,1.2c0.2,0.4,0.4,0.7,0.7,1
		c0.2,0.2,0.5,0.4,0.8,0.5c0,0,0.1,0,0.1,0.1c0,0,0,0,0,0c0,0,0.1,0,0.1,0c0.4,0.1,0.8,0.2,1.2,0.2c0.1,0,0.1,0,0.2,0
		c0.1,0,0.1,0,0.2,0c0,0,0.1,0,0.1,0c0,0,0,0,0.1,0c0,0,0,0,0.1,0c0,0,0,0,0.1,0c0.1,0,0.2,0,0.3-0.1c0,0,0,0,0,0c0,0,0.1,0,0.1,0
		c0,0,0.1,0,0.1,0c0.1-0.1,0.2-0.2,0.2-0.4v-0.7c0-0.2-0.2-0.4-0.4-0.4c-0.1,0-0.1,0-0.2,0c-0.2,0.1-0.5,0.2-0.7,0.2
		c-0.5,0-0.9-0.2-1.1-0.5c-0.3-0.3-0.4-0.7-0.4-1.1c0,0,0-0.1,0-0.1c0,0,0,0,0,0C19.7,32.4,19.9,32.1,20.2,31.8z"/>
	<path class="st1" d="M27.3,32.3v-1.5c0-0.4,0.3-0.8,0.8-0.8h0c0.4,0,0.8,0.3,0.8,0.8v4.3c0,0.4-0.3,0.8-0.8,0.8h0
		c-0.4,0-0.8-0.3-0.8-0.8v-1.6h-2.2v1.6c0,0.4-0.3,0.8-0.8,0.8h0c-0.4,0-0.8-0.3-0.8-0.8v-4.3c0-0.4,0.3-0.8,0.8-0.8h0
		c0.4,0,0.8,0.3,0.8,0.8v1.5H27.3z"/>
	<path class="st2" d="M33.2,35.8L33.2,35.8c-0.4,0-0.8-0.3-0.8-0.8v-4.3c0-0.4,0.3-0.8,0.8-0.8l0,0c0.4,0,0.8,0.3,0.8,0.8v4.3
		C34,35.5,33.6,35.8,33.2,35.8z"/>
	<path class="st2" d="M36.5,35.8L36.5,35.8c-0.4,0-0.8-0.3-0.8-0.8v-3.8h-0.6c-0.4,0-0.6-0.3-0.6-0.6v0c0-0.4,0.3-0.6,0.6-0.6h2.7
		c0.4,0,0.6,0.3,0.6,0.6v0c0,0.4-0.3,0.6-0.6,0.6h-0.6v3.8C37.3,35.5,37,35.8,36.5,35.8z"/>
</g>
</svg>
