<?xml version="1.0" encoding="utf-8"?>
<!-- Generator: Adobe Illustrator 19.0.0, SVG Export Plug-In . SVG Version: 6.00 Build 0)  -->
<svg version="1.1" id="Layer_1" xmlns="http://www.w3.org/2000/svg" xmlns:xlink="http://www.w3.org/1999/xlink" x="0px" y="0px"
	 viewBox="0 0 83 36" style="enable-background:new 0 0 83 36;" xml:space="preserve">
<style type="text/css">
	.st0{fill:#EFEEEE;}
	.st1{fill:#F9F9FA;}
</style>
<g id="XMLID_2_">
	<path id="XMLID_17_" class="st0" d="M4.6,9L0.9,6.8c-0.3-0.1-0.6,0-0.6,0.3v4.3c0,0.3,0.3,0.5,0.6,0.3l3.7-2.1
		C4.8,9.5,4.8,9.1,4.6,9z"/>
	<path id="XMLID_16_" class="st0" d="M11.9,5.4c-0.4-1.1-0.9-2-1.6-2.8C9.6,1.8,8.8,1.2,7.8,0.7c-1-0.4-2.1-0.6-3.3-0.6H0.3V3h3.8
		c1.8,0,3.1,0.5,3.8,1.6c0.8,1.1,1.2,2.7,1.2,4.8c0,0.2,0,0.5,0,0.8c0,0.3-0.1,0.6-0.1,0.9c-0.1,0.2-0.1,0.5-0.2,0.7
		c-0.1,0.2-0.1,0.5-0.2,0.7c-0.1,0.2-0.2,0.4-0.3,0.6c-0.1,0.2-0.2,0.4-0.3,0.5c-0.3,0.4-0.6,0.7-0.9,1C6.7,15,6.3,15.2,6,15.4h0
		c-0.2,0.1-0.5,0.1-0.8,0.2c-0.3,0-0.7,0.1-1,0.1H0.3v2.9h4.3c1.6,0,2.9-0.4,4.1-1.1c1.1-0.7,2-1.8,2.7-3.2c0.4-0.8,0.6-1.6,0.8-2.5
		c0.2-0.9,0.3-1.8,0.3-2.8C12.4,7.7,12.2,6.5,11.9,5.4z"/>
	<path id="XMLID_15_" class="st0" d="M30.1,17.1c-0.1-0.1-0.2-0.3-0.3-0.4c-0.1-0.2-0.1-0.4-0.2-0.7c0-0.3-0.1-0.6-0.1-0.9l-0.1-2.3
		c0-0.5-0.1-0.9-0.1-1.2c-0.1-0.3-0.2-0.6-0.3-0.9c-0.1-0.3-0.3-0.5-0.5-0.7c-0.2-0.2-0.4-0.4-0.7-0.6c0.6-0.5,1.1-1,1.5-1.7
		c0.4-0.7,0.5-1.5,0.5-2.5c0-1.6-0.5-2.9-1.5-3.8c-1-0.9-2.6-1.4-4.7-1.4h-8.6v18.4h3.2V14v-3V8.1V6V3h5.4c0.3,0,0.7,0,1,0.1
		c0.3,0.1,0.6,0.1,0.8,0.2v0c0.4,0.2,0.6,0.5,0.8,0.8c0.2,0.4,0.3,0.8,0.3,1.3c0,0.5-0.1,0.9-0.2,1.3c-0.1,0.3-0.3,0.6-0.6,0.8
		c-0.6,0.4-1.4,0.6-2.4,0.6h-3.7l1,2.8h2.6c0.4,0,0.8,0,1.1,0.1c0.3,0.1,0.6,0.1,0.8,0.2v0c0.3,0.2,0.5,0.4,0.7,0.8
		c0.2,0.3,0.3,0.7,0.3,1.2c0,0.3,0,0.5,0,0.8c0,0.3,0,0.5,0,0.8c0,0.6,0.1,1.1,0.1,1.4c0,0.4,0,0.7,0.1,0.9c0,0.2,0.1,0.5,0.1,0.7
		c0.1,0.2,0.2,0.4,0.3,0.7h3.6v-1.1C30.3,17.3,30.2,17.2,30.1,17.1z"/>
	<path id="XMLID_14_" class="st0" d="M59.4,0.1c-0.8,2.3-1.5,4.6-2.3,6.9c-0.8,2.4-1.6,4.7-2.4,7L50,0.1H47L49,6c0,0,0,0,0,0
		l1.4,4.3l0.1,0.3l0,0l2.7,8h3c0.2-0.5,0.4-1.2,0.6-1.9c0.2-0.7,0.5-1.5,0.8-2.3c0.3-0.8,0.5-1.6,0.8-2.4c0.3-0.8,0.5-1.6,0.8-2.4
		c0.3-0.7,0.5-1.4,0.7-2c0.2-0.6,0.4-1.1,0.5-1.5v0.1c0,0,0,0,0,0.1s0,0.2,0,0.4c0,0.2,0,0.6,0,1.1s0,1.2,0,2.1c0,0.9,0,2.1,0,3.5
		s0,3.1,0,5.2h3.1V0.1H59.4z"/>
	<path id="XMLID_13_" class="st0" d="M42.1,0.1h-3.3l-6.9,18.4h3.4c0-0.1,0.1-0.3,0.2-0.5c0.1-0.3,0.2-0.6,0.3-0.9
		c0.1-0.3,0.3-0.7,0.4-1.1c0.1-0.4,0.3-0.8,0.4-1.1c0-0.1,0.1-0.2,0.1-0.3l1.8-4.9l0,0l0.2-0.4c0-0.1,0.1-0.2,0.2-0.4
		c0.1-0.2,0.2-0.5,0.3-0.8c0.1-0.3,0.2-0.7,0.4-1c0.1-0.4,0.3-0.7,0.4-1C39.9,5.5,40,5.2,40.1,5c0.1-0.3,0.2-0.4,0.2-0.5
		c0.2,0.6,0.4,1.1,0.6,1.6c0.2,0.5,0.3,1,0.5,1.4c0.2,0.5,0.3,0.9,0.5,1.4c0.2,0.5,0.3,1,0.5,1.5h-2.8l-1,2.8h4.9l1.8,5.2h3.5
		L42.1,0.1z"/>
	<path id="XMLID_12_" class="st0" d="M72.5,0.1h3.3l6.9,18.4h-3.4c0-0.1-0.1-0.3-0.2-0.5c-0.1-0.3-0.2-0.6-0.3-0.9
		c-0.1-0.3-0.3-0.7-0.4-1.1c-0.1-0.4-0.3-0.8-0.4-1.1c0-0.1-0.1-0.2-0.1-0.3l-1.8-4.9l0,0L76,9.2c0-0.1-0.1-0.2-0.2-0.4
		c-0.1-0.2-0.2-0.5-0.3-0.8c-0.1-0.3-0.2-0.7-0.4-1c-0.1-0.4-0.3-0.7-0.4-1c-0.1-0.3-0.2-0.6-0.3-0.9c-0.1-0.3-0.2-0.4-0.2-0.5
		C74,5,73.8,5.6,73.7,6.1c-0.2,0.5-0.3,1-0.5,1.4C73,8,72.9,8.5,72.7,8.9c-0.2,0.5-0.3,1-0.5,1.5H75l1,2.8h-4.9l-1.8,5.2h-3.5
		L72.5,0.1z"/>
	<polygon id="XMLID_11_" class="st0" points="48.7,32.8 46.6,35.9 54.1,35.9 54.1,32.8 	"/>
	<path id="XMLID_10_" class="st0" d="M55.3,29.3v3.5h-2.9v3.1h4.7l0,0c1.1-0.1,1.3-0.6,1.3-0.9v-7.3L55.3,29.3z"/>
	<rect id="XMLID_9_" x="6.4" y="32.8" class="st0" width="44" height="3.1"/>
	<path id="XMLID_8_" class="st0" d="M43.2,29.2c-0.8-0.8-1.7-1.2-2.8-1.2c-1.1,0-2,0.4-2.8,1.2c-0.8,0.8-1.2,1.7-1.2,2.8
		c0,0.9,0.3,1.7,0.8,2.4c0.5,0.7,1.2,1.2,2,1.4c0.1,0,0.6,0,1.1,0c0.5,0,1.1,0,1.3-0.1c0.8-0.2,1.5-0.7,2-1.4
		c0.5-0.7,0.8-1.5,0.8-2.4C44.3,30.9,44,30,43.2,29.2z"/>
	<path id="XMLID_7_" class="st0" d="M63.6,32.9V15.7l-3.1,1.7v17.6c0,0.5,0.4,0.8,1.3,0.9h4.8v-3H63.6z"/>
	<path id="XMLID_6_" class="st0" d="M69,28.7v4.1h-2.9v3h0.3l4.4,0c0.8-0.1,1.2-0.4,1.2-0.9v-7.2L69,28.7z"/>
	<path id="XMLID_5_" class="st1" d="M72.4,23.7c-0.1-0.2-0.2-0.4-0.3-0.5c-0.1-0.1-0.3-0.3-0.5-0.4c-0.2-0.1-0.4-0.1-0.6-0.1
		c-0.1,0-0.3,0-0.5,0.1c-0.2,0.1-0.3,0.1-0.5,0.2c-0.2,0.1-0.3,0.2-0.5,0.4c-0.2,0.1-0.3,0.3-0.5,0.5V21l-1.2,0.3v2.7
		c0,0.1,0.1,0.3,0.3,0.3h1.4c0.3,0,0.5-0.1,0.8-0.2c0.2-0.2,0.4-0.2,0.6-0.2c0.2,0,0.3,0,0.4,0.1c0.1,0.1,0.1,0.2,0.1,0.3
		c0,0.2-0.1,0.3-0.2,0.4c-0.1,0.1-0.3,0.2-0.5,0.2h-0.3h-1h-1.8h-0.2h-1v0.7c0.5,0.4,1,0.6,1.5,0.6h2.8c0.2,0,0.3,0,0.5-0.1
		c0.3-0.1,0.5-0.2,0.7-0.4c0.2-0.2,0.3-0.4,0.4-0.6c0.1-0.2,0.1-0.5,0.1-0.7C72.6,24.1,72.5,23.9,72.4,23.7z"/>
	<polygon id="XMLID_4_" class="st0" points="7.5,32.8 3.5,32.8 0.3,35.9 7.5,35.9 	"/>
	<path id="XMLID_3_" class="st0" d="M57.4,25.9l-5.4,0l0.8-1.4l1.3,0c-0.2-0.3-0.3-0.6-0.3-0.9c0-0.3,0-0.5,0-0.8
		c0.1-0.3,0.2-0.5,0.4-0.7c0.2-0.2,0.4-0.4,0.7-0.5c0.3-0.1,0.5-0.2,0.9-0.2c0.3,0,0.6,0,0.9,0.1c0.5,0.1,0.8,0.3,1.1,0.6l-0.3,1.1
		c-0.2-0.1-0.3-0.2-0.5-0.2c-0.2-0.1-0.3-0.1-0.5-0.2c-0.9-0.2-1.4-0.1-1.5,0.4c0,0.1,0,0.3,0,0.4c0,0.1,0.1,0.2,0.2,0.4
		c0.1,0.1,0.2,0.2,0.3,0.3c0.1,0.1,0.2,0.1,0.4,0.2c0.1,0,0.4,0,0.8,0.1c0.4,0,0.9,0,1.6,0L57.4,25.9z"/>
</g>
</svg>
