<?xml version="1.0" encoding="utf-8"?>
<!-- Generator: Adobe Illustrator 19.0.0, SVG Export Plug-In . SVG Version: 6.00 Build 0)  -->
<svg version="1.1" id="Layer_3" xmlns="http://www.w3.org/2000/svg" xmlns:xlink="http://www.w3.org/1999/xlink" x="0px" y="0px"
	 viewBox="-45.5 0 86 36" style="enable-background:new -45.5 0 86 36;" xml:space="preserve">
<style type="text/css">
	.st0{fill:#FEFEFE;}
</style>
<g>
	<path class="st0" d="M-26,11l-3.5,24.5h-11.6l-4.4-29.1h7.9l2.5,21.2c0.2-1.6,0.5-5.4,1-11.4c0.3-3.4,0.5-6.6,0.9-9.8h3.3
		C-27.5,6.4-25.6,8.6-26,11z"/>
	<path class="st0" d="M-15.2,0v8.4c0.7-0.8,1.5-1.5,2.4-1.9c0.9-0.4,1.9-0.6,2.9-0.6c1.2,0,2.3,0.2,3.2,0.6c0.9,0.4,1.6,0.9,2,1.6
		c0.5,0.7,0.7,1.4,0.8,2c0.1,0.7,0.1,2.1,0.1,4.2v13.1c0,2.1-0.1,3.7-0.4,4.8c-0.3,1-1,2-2,2.7S-8.4,36-9.8,36c-1,0-2-0.2-2.9-0.7
		c-0.9-0.5-1.7-1.1-2.5-2l-0.6,2.2H-24V4c0-2.2,1.8-4,4-4L-15.2,0z M-12.5,14.7c0-1.5-0.1-2.5-0.3-2.9c-0.2-0.5-0.6-0.7-1.1-0.7
		c-0.5,0-0.9,0.2-1.1,0.6c-0.2,0.4-0.2,1.4-0.2,3v12.5c0,1.6,0.1,2.6,0.3,3c0.2,0.4,0.5,0.7,1.1,0.7c0.6,0,0.9-0.2,1.1-0.7
		c0.2-0.5,0.3-1.5,0.3-3.3V14.7z"/>
	<path class="st0" d="M39.8,6.4l-3.5,13.9l4.3,15.2h-8.6c-0.9-3.8-1.5-7.1-1.9-9.9c-0.6,3.5-1.2,6.8-1.9,9.9h-7.4l3.8-15.2l-2.1-7.8
		c-0.8-3.1,1.5-6.1,4.7-6.1h1c1.2,5.9,1.8,9.3,1.9,10.1c0.9-5,1.5-8.3,1.9-10.1H39.8z"/>
	<path class="st0" d="M15.1,5.9H3.2C0.9,5.9-1,7.7-1,10.1v18.5h20.2v0.8c0,0,0,0,0-0.1V10.1C19.3,7.7,17.4,5.9,15.1,5.9z M13.2,20.1
		l-5.4,3.1c-0.7,0.4-1.6-0.1-1.6-0.9v-6.3c0-0.8,0.9-1.3,1.6-0.9l5.4,3.1C13.9,18.7,13.9,19.7,13.2,20.1z"/>
	<path class="st0" d="M-1,29.7c0.1,3.5,3,6.3,6.6,6.3h7.1c3.5,0,6.4-2.8,6.6-6.3H-1z M9.1,34.3c-0.8,0-1.5-0.7-1.5-1.5
		c0-0.8,0.7-1.5,1.5-1.5c0.8,0,1.5,0.7,1.5,1.5C10.6,33.7,10,34.3,9.1,34.3z"/>
</g>
</svg>
