<?xml version="1.0" encoding="iso-8859-1"?>
<!-- Generator: Adobe Illustrator 19.0.0, SVG Export Plug-In . SVG Version: 6.00 Build 0)  -->
<svg version="1.1" id="Layer_3" xmlns="http://www.w3.org/2000/svg" xmlns:xlink="http://www.w3.org/1999/xlink" x="0px" y="0px"
	 viewBox="0 0 240 240" style="enable-background:new 0 0 240 240;" xml:space="preserve">
<g>
	<path id="XMLID_15_" style="fill:#FEFEFE;" d="M51.918,102.98c-7.943-0.001-15.887,0.02-23.83-0.009
		c-4.444-0.016-6.968-2.093-6.937-5.593c0.031-3.47,2.616-5.606,7.021-5.616c14.018-0.032,28.035-0.01,42.053-0.013
		c10.471-0.003,10.725-0.261,10.727-10.897C80.955,67.3,80.949,53.75,80.959,40.2c0.001-1.165-0.045-2.354,0.162-3.49
		c0.555-3.034,3.115-5.092,5.978-4.721c3.042,0.394,4.921,2.169,5.023,5.315c0.128,3.968,0.06,7.942,0.061,11.913
		c0.005,11.565-0.402,23.147,0.118,34.688c0.506,11.224-7.556,19.925-19.361,19.158C65.96,102.61,58.927,102.981,51.918,102.98z"/>
	<path id="XMLID_14_" style="fill:#FEFEFE;" d="M181.245,102.981c-7.593,0-15.186,0.053-22.779-0.013
		c-10.621-0.092-17.449-6.956-17.489-17.638c-0.058-15.419-0.028-30.839-0.013-46.259c0.004-4.521,1.953-7.038,5.414-7.128
		c3.573-0.093,5.799,2.592,5.808,7.188c0.027,14.835,0.01,29.671,0.013,44.506c0.001,6.757,1.363,8.103,8.252,8.107
		c14.485,0.008,28.97,0.002,43.455,0.009c1.049,0.001,2.117-0.048,3.145,0.12c3.085,0.507,5.091,2.932,4.94,5.835
		c-0.153,2.928-2.321,5.174-5.513,5.214c-8.409,0.103-16.821,0.035-25.231,0.035C181.245,102.965,181.245,102.973,181.245,102.981z"
		/>
	<path id="XMLID_12_" style="fill:#FEFEFE;" d="M92.184,191.992c-0.001,8.06,0.03,16.121-0.014,24.181
		c-0.023,4.163-2.158,6.628-5.559,6.618c-3.376-0.01-5.623-2.527-5.637-6.64c-0.049-15.186-0.014-30.372-0.03-45.558
		c-0.006-6.064-1.572-7.596-7.704-7.598c-14.602-0.006-29.204,0.007-43.805-0.016c-1.39-0.002-2.839,0.009-4.157-0.357
		c-2.824-0.785-4.321-2.829-4.069-5.746c0.248-2.883,1.962-4.652,4.918-5.058c0.116-0.016,0.233-0.027,0.349-0.027
		c17.053,0.032,34.113-0.188,51.157,0.21c7.907,0.185,14.201,7.583,14.498,15.811c0.148,4.083,0.047,8.176,0.052,12.264
		C92.188,184.048,92.184,188.02,92.184,191.992z"/>
	<path id="XMLID_1_" style="fill:#FEFEFE;" d="M140.964,191.569c0-7.476-0.053-14.952,0.013-22.428
		c0.092-10.406,6.983-17.319,17.404-17.365c15.536-0.068,31.072-0.031,46.608-0.011c4.494,0.006,6.995,2.024,7.007,5.525
		c0.013,3.474-2.589,5.674-6.954,5.684c-15.069,0.033-30.137,0.006-45.206,0.018c-6.088,0.005-7.635,1.561-7.64,7.675
		c-0.011,14.601-0.003,29.203-0.007,43.804c0,1.051,0.062,2.115-0.08,3.149c-0.425,3.096-2.773,5.201-5.65,5.172
		c-3.058-0.031-5.41-2.281-5.448-5.642c-0.097-8.526-0.032-17.054-0.032-25.581C140.975,191.569,140.969,191.569,140.964,191.569z"
		/>
</g>
</svg>
