<?xml version="1.0" encoding="iso-8859-1"?>
<!-- Generator: Adobe Illustrator 19.0.0, SVG Export Plug-In . SVG Version: 6.00 Build 0)  -->
<svg version="1.1" id="Layer_2" xmlns="http://www.w3.org/2000/svg" xmlns:xlink="http://www.w3.org/1999/xlink" x="0px" y="0px"
	 viewBox="0 0 240 240" style="enable-background:new 0 0 240 240;" xml:space="preserve">
<g id="XMLID_7_">
	<g id="XMLID_13_">
		<path id="XMLID_16_" style="fill:#FFFFFF;" d="M85.512,220.27c-1.606,0-3.148-0.824-4.023-2.255L64.946,190.94l-29.74-11.015
			c-2.09-0.773-3.356-2.914-3.024-5.119l4.723-31.383l-15.71-27.572c-1.105-1.938-0.695-4.387,0.976-5.864l23.77-21.008l5.68-31.222
			c0.396-2.2,2.283-3.811,4.516-3.871l31.696-0.801l24.405-20.267c1.712-1.427,4.203-1.455,5.952-0.06l24.796,19.784l31.71,0.17
			c2.232,0.014,4.152,1.588,4.594,3.779l6.288,31.107l24.184,20.529c1.699,1.445,2.154,3.885,1.091,5.846l-15.162,27.88
			l5.335,31.282c0.377,2.2-0.842,4.364-2.918,5.178l-29.514,11.6l-16.009,27.402c-1.119,1.933-3.461,2.799-5.57,2.09l-30.057-10.099
			L87.1,219.994C86.58,220.183,86.042,220.27,85.512,220.27z M42.074,172.417l27.682,10.251c0.99,0.368,1.832,1.059,2.384,1.961
			l15.392,25.197l27.784-9.947c0.985-0.359,2.076-0.364,3.089-0.032l27.972,9.399l14.9-25.501c0.534-0.911,1.358-1.62,2.343-2.007
			l27.471-10.794l-4.967-29.118c-0.18-1.04,0-2.113,0.502-3.043l14.113-25.947L178.23,93.729c-0.806-0.686-1.358-1.625-1.57-2.661
			l-5.855-28.948l-29.51-0.161c-1.059-0.005-2.085-0.368-2.914-1.031l-23.075-18.407L92.596,61.384
			c-0.815,0.677-1.832,1.059-2.891,1.086l-29.501,0.746L54.921,92.27c-0.189,1.04-0.723,1.988-1.514,2.688l-22.122,19.553
			l14.619,25.662c0.525,0.921,0.723,1.988,0.566,3.033L42.074,172.417z"/>
	</g>
	<g id="XMLID_8_">
		<path id="XMLID_9_" style="fill:#FFFFFF;" d="M114.999,170.203c-23.655,0-42.895-19.259-42.895-42.927s19.24-42.927,42.895-42.927
			s42.9,19.259,42.9,42.927S138.654,170.203,114.999,170.203z M114.999,93.775c-18.453,0-33.468,15.029-33.468,33.501
			s15.015,33.501,33.468,33.501c18.458,0,33.473-15.029,33.473-33.501S133.457,93.775,114.999,93.775z"/>
	</g>
</g>
</svg>
