<?xml version="1.0" encoding="iso-8859-1"?>
<!-- Generator: Adobe Illustrator 19.0.0, SVG Export Plug-In . SVG Version: 6.00 Build 0)  -->
<svg version="1.1" id="Layer_2" xmlns="http://www.w3.org/2000/svg" xmlns:xlink="http://www.w3.org/1999/xlink" x="0px" y="0px"
	 viewBox="0 0 240 240" style="enable-background:new 0 0 240 240;" xml:space="preserve">
<g id="XMLID_6_">
	<path id="XMLID_4_" style="fill:#FFFFFF;stroke:#FFFFFF;stroke-miterlimit:10;" d="M183.117,205.964h-19.366
		c-0.632,0-1.144-0.512-1.144-1.144V35.179c0-0.632,0.512-1.144,1.144-1.144h19.366c0.632,0,1.144,0.512,1.144,1.144v169.641
		C184.26,205.452,183.748,205.964,183.117,205.964z"/>
	<path id="XMLID_3_" style="fill:#FFFFFF;stroke:#FFFFFF;stroke-miterlimit:10;" d="M76.249,205.964H56.883
		c-0.632,0-1.144-0.512-1.144-1.144V35.179c0-0.632,0.512-1.144,1.144-1.144h19.366c0.632,0,1.144,0.512,1.144,1.144v169.641
		C77.393,205.452,76.881,205.964,76.249,205.964z"/>
</g>
</svg>
