<?xml version="1.0" encoding="iso-8859-1"?>
<!-- Generator: Adobe Illustrator 19.0.0, SVG Export Plug-In . SVG Version: 6.00 Build 0)  -->
<svg version="1.1" id="Layer_2" xmlns="http://www.w3.org/2000/svg" xmlns:xlink="http://www.w3.org/1999/xlink" x="0px" y="0px"
	 viewBox="0 0 240 240" style="enable-background:new 0 0 240 240;" xml:space="preserve">
<g id="XMLID_13_">
	<path id="XMLID_11_" style="fill:#FEFEFE;" d="M61.499,31.954c7.824,0,15.648-0.015,23.472,0.007
		c4.475,0.013,6.888,2.024,6.869,5.64c-0.019,3.596-2.433,5.566-6.94,5.57c-15.064,0.015-30.129,0-45.193,0.009
		c-5.907,0.003-7.622,1.754-7.624,7.772c-0.007,15.181,0.107,30.364-0.136,45.542c-0.032,1.971-1.427,4.581-3.025,5.66
		c-1.292,0.872-4.255,0.505-5.708-0.464c-1.323-0.883-2.237-3.31-2.256-5.068c-0.167-15.997-0.17-31.997-0.072-47.995
		c0.057-9.309,7.433-16.555,16.791-16.654C45.617,31.887,53.558,31.954,61.499,31.954z"/>
	<path id="XMLID_10_" style="fill:#FEFEFE;" d="M211.639,72.273c-0.002,7.941,0.016,15.882-0.009,23.823
		c-0.014,4.459-2.051,6.877-5.669,6.84c-3.587-0.036-5.535-2.446-5.54-6.969c-0.016-14.831-0.004-29.662-0.01-44.493
		c-0.003-6.758-1.521-8.295-8.145-8.294c-14.948,0.001-29.896-0.031-44.844,0.026c-2.97,0.011-5.369-0.805-6.481-3.709
		c-1.499-3.918,1.378-7.506,6.055-7.527c11.094-0.052,22.188-0.015,33.282-0.015c4.554,0,9.109-0.02,13.663,0.004
		c10.492,0.055,17.636,7.124,17.691,17.543C211.673,57.091,211.641,64.682,211.639,72.273z"/>
	<path id="XMLID_9_" style="fill:#FEFEFE;" d="M20.856,182.114c-0.002-7.824-0.018-15.649,0.004-23.473
		c0.013-4.477,2.02-6.899,5.624-6.894c3.592,0.005,5.588,2.428,5.593,6.923c0.017,15.181,0,30.363,0.008,45.545
		c0.003,5.446,1.863,7.284,7.393,7.289c15.298,0.013,30.597-0.019,45.895,0.023c5.024,0.014,8.205,4.188,5.829,7.972
		c-0.985,1.569-3.477,3.068-5.305,3.094c-16.346,0.233-32.698,0.273-49.045,0.069c-8.753-0.109-15.755-7.536-15.971-16.374
		c-0.1-4.085-0.022-8.174-0.023-12.262C20.857,190.055,20.858,186.085,20.856,182.114z"/>
	<path id="XMLID_8_" style="fill:#FEFEFE;" d="M211.639,182.468c0.003,7.591,0.035,15.182-0.005,22.772
		c-0.054,10.238-7.2,17.453-17.395,17.484c-15.532,0.047-31.063,0.019-46.595,0.004c-4.546-0.005-6.941-1.929-6.987-5.522
		c-0.048-3.707,2.414-5.686,7.172-5.691c15.065-0.013,30.129-0.001,45.194-0.012c5.533-0.004,7.381-1.826,7.386-7.292
		c0.013-15.298-0.006-30.596,0.019-45.895c0.007-3.909,1.767-6.18,4.892-6.526c3.693-0.409,6.27,2.019,6.301,6.154
		C211.678,166.118,211.636,174.293,211.639,182.468z"/>
</g>
</svg>
