<?xml version="1.0" encoding="iso-8859-1"?>
<!-- Generator: Adobe Illustrator 19.0.0, SVG Export Plug-In . SVG Version: 6.00 Build 0)  -->
<svg version="1.1" id="Layer_3" xmlns="http://www.w3.org/2000/svg" xmlns:xlink="http://www.w3.org/1999/xlink" x="0px" y="0px"
	 viewBox="0 0 240 240" style="enable-background:new 0 0 240 240;" xml:space="preserve">
<path id="XMLID_1_" style="fill:#FEFEFE;" d="M25.335,177.421c3.943,1.453,8.317-0.579,9.772-4.515l3.733-10.165
	c20.81,43.486,72.335,63.694,117.374,44.997c46.544-19.318,68.692-72.906,49.367-119.458
	c-19.32-46.539-72.908-68.687-119.454-49.365C66.751,46.96,50.608,61.567,40.68,80.036c-1.992,3.705-0.602,8.321,3.104,10.313
	c3.699,1.995,8.328,0.611,10.313-3.104c8.266-15.384,21.717-27.557,37.869-34.259c38.793-16.107,83.441,2.353,99.544,41.143
	c16.105,38.786-2.346,83.439-41.141,99.539c-37.104,15.404-79.511-0.872-97.22-36.261l9.142,4.206
	c3.814,1.757,8.345,0.088,10.097-3.728c1.763-3.828,0.085-8.352-3.731-10.104l-27.19-12.526c-1.926-0.893-4.142-0.924-6.101-0.116
	c-1.962,0.812-3.499,2.413-4.232,4.406l-10.325,28.092C19.36,171.594,21.383,175.976,25.335,177.421z"/>
</svg>
